<svg width="24" height="24" viewBox="0 0 24 24" fill="none" xmlns="http://www.w3.org/2000/svg">
<path fill-rule="evenodd" clip-rule="evenodd" d="M2 16C2 17.1046 2.89543 18 4 18H6V21.7732C6 22.636 7.01946 23.0938 7.66436 22.5206L12.75 18H20C21.1046 18 22 17.1046 22 16V5C22 3.89543 21.1046 3 20 3H4C2.89543 3 2 3.89543 2 5V16ZM7.5 18C7.5 17.1716 6.82843 16.5 6 16.5H4C3.72386 16.5 3.5 16.2761 3.5 16V5C3.5 4.72386 3.72386 4.5 4 4.5H20C20.2761 4.5 20.5 4.72386 20.5 5V16C20.5 16.2761 20.2761 16.5 20 16.5H12.75C12.3826 16.5 12.028 16.6348 11.7535 16.8789L7.5 20.6597V18Z" fill="#6A35FF"/>
</svg>
