<svg width="24" height="24" viewBox="0 0 24 24" fill="none" xmlns="http://www.w3.org/2000/svg">
<path d="M16.0029 8.06073L19.1923 11.2501L2.75293 11.2501C2.33872 11.2501 2.00293 11.5858 2.00293 12.0001C2.00293 12.4143 2.33872 12.7501 2.75293 12.7501L19.1923 12.7501L16.0029 15.9394C15.7101 16.2323 15.7101 16.7072 16.0029 17.0001C16.2958 17.293 16.7707 17.293 17.0636 17.0001L21.5333 12.5304C21.8262 12.2375 21.8262 11.7626 21.5333 11.4697L17.0636 7.00007C16.8805 6.81701 16.6264 6.74836 16.39 6.79412C16.2482 6.82158 16.1128 6.89023 16.0029 7.00007C15.9984 7.00464 15.9939 7.00926 15.9894 7.01393C15.7101 7.30775 15.7146 7.77241 16.0029 8.06073Z" fill="white"/>
</svg>
