<svg width="24" height="24" viewBox="0 0 24 24" fill="none" xmlns="http://www.w3.org/2000/svg">
<g clip-path="url(#clip0_0_23)">
<path fill-rule="evenodd" clip-rule="evenodd" d="M11 2C10.7348 2 10.4804 2.10536 10.2929 2.29289C10.1054 2.48043 10 2.73478 10 3V11.382L12.5528 10.1056C12.6916 10.0361 12.8448 10 13 10H21C21.2652 10 21.5196 9.89464 21.7071 9.70711C21.8946 9.51957 22 9.26522 22 9V3C22 2.73478 21.8946 2.48043 21.7071 2.29289C21.5196 2.10536 21.2652 2 21 2H11ZM8.87868 0.87868C9.44129 0.316071 10.2044 0 11 0H21C21.7956 0 22.5587 0.316071 23.1213 0.87868C23.6839 1.44129 24 2.20435 24 3V9C24 9.79565 23.6839 10.5587 23.1213 11.1213C22.5587 11.6839 21.7957 12 21 12H13.2361L9.44721 13.8944C9.13723 14.0494 8.76909 14.0329 8.47427 13.8507C8.17945 13.6684 8 13.3466 8 13V3C8 2.20435 8.31607 1.44129 8.87868 0.87868Z" fill="#6A35FF"/>
<path fill-rule="evenodd" clip-rule="evenodd" d="M1.87868 2.87868C2.44129 2.31607 3.20435 2 4 2H5.5C6.05228 2 6.5 2.44772 6.5 3C6.5 3.55228 6.05228 4 5.5 4H4C3.73478 4 3.48043 4.10536 3.29289 4.29289C3.10536 4.48043 3 4.73478 3 5V21C3 21.2652 3.10536 21.5196 3.29289 21.7071C3.48043 21.8946 3.73478 22 4 22H15C15.2652 22 15.5196 21.8946 15.7071 21.7071C15.8946 21.5196 16 21.2652 16 21V15C16 14.4477 16.4477 14 17 14C17.5523 14 18 14.4477 18 15V21C18 21.7957 17.6839 22.5587 17.1213 23.1213C16.5587 23.6839 15.7957 24 15 24H4C3.20435 24 2.44129 23.6839 1.87868 23.1213C1.31607 22.5587 1 21.7957 1 21V5C1 4.20435 1.31607 3.44129 1.87868 2.87868Z" fill="#6A35FF"/>
<circle cx="10" cy="19" r="1" fill="#6A35FF"/>
</g>
<defs>
<clipPath id="clip0_0_23">
<rect width="24" height="24" fill="white"/>
</clipPath>
</defs>
</svg>
