<svg width="24" height="24" viewBox="0 0 24 24" fill="none" xmlns="http://www.w3.org/2000/svg">
<path d="M10.955 18.8943L4.81066 12.7501H21.25C21.6642 12.7501 22 12.4143 22 12.0001C22 11.5858 21.6642 11.2501 21.25 11.2501H4.81066L10.955 5.10577C11.2479 4.81288 11.2479 4.338 10.955 4.04511C10.9184 4.0085 10.8789 3.97646 10.8373 3.949C10.5462 3.75679 10.1506 3.78883 9.89429 4.04511L2.46967 11.4697C2.17678 11.7626 2.17678 12.2375 2.46967 12.5304L9.89429 19.955C9.9309 19.9916 9.97036 20.0237 10.012 20.0511C10.3031 20.2433 10.6987 20.2113 10.955 19.955C11.2479 19.6621 11.2479 19.1872 10.955 18.8943Z" fill="#0D0D0D"/>
</svg>
