<svg width="24" height="24" viewBox="0 0 24 24" fill="none" xmlns="http://www.w3.org/2000/svg">
<path d="M15 2H18C20.2091 2 22 3.79086 22 6V9" stroke="white" stroke-width="1.5"/>
<path d="M9 2H6C3.79086 2 2 3.79086 2 6V9" stroke="white" stroke-width="1.2"/>
<path d="M15 22H18C20.2091 22 22 20.2091 22 18V15" stroke="white" stroke-width="1.2"/>
<path d="M9 22H6C3.79086 22 2 20.2091 2 18V15" stroke="white" stroke-width="1.2"/>
<path d="M7 7.5C7 7.22386 7.22386 7 7.5 7H16.5C16.7761 7 17 7.22386 17 7.5V15L12 19L7 15V7.5Z" fill="#FCDEFF"/>
<line x1="1.24316" y1="12.0345" x2="22.7266" y2="12.0345" stroke="white" stroke-width="1.2"/>
</svg>
